<?xml version="1.0" encoding="utf-8"?>
<!-- Generator: Adobe Illustrator 18.1.0, SVG Export Plug-In . SVG Version: 6.00 Build 0)  -->
<svg version="1.1" id="Layer_1" xmlns="http://www.w3.org/2000/svg" xmlns:xlink="http://www.w3.org/1999/xlink" x="0px" y="0px"
	 viewBox="0 0 1500 1500" enable-background="new 0 0 1500 1500" xml:space="preserve">
<g>
	<path fill="none" d="M260,796.2c-1-0.3-1.9-0.5-2.9-0.8c-0.2,0-0.4-0.1-0.6-0.1c0.8,0.3,1.7,0.5,2.5,0.8
		C259.3,796,259.7,796.1,260,796.2z"/>
	<path fill="none" d="M249.9,794c-1-0.2-1.9-0.4-2.9-0.7c-0.5-0.1-1.1-0.2-1.6-0.3c1.2,0.3,2.4,0.6,3.6,0.9
		C249.3,794,249.6,794,249.9,794z"/>
	<path fill="none" d="M279,801c-0.6-0.2-1.2-0.4-1.8-0.6c-0.4-0.1-0.7-0.1-1.1-0.2C277.1,800.4,278,800.7,279,801
		C279,801,279,801,279,801z"/>
	<path fill="none" d="M219,788c3,1,6,1,9,2c2.6,0.4,5.2,0.7,7.8,1.2c-3.3-0.7-6.6-1.4-9.8-1.9c-3-1-6-2-9.1-2
		c-9-1.8-18.1-2.8-27.1-3.7L189,784C199,785,209,786,219,788z"/>
	<path fill="none" d="M433.5,632.4L433.5,632.4c-53.1-10.4-114-11-182.5,6.6C319.5,622.4,381.2,623,433.5,632.4z"/>
	<path fill="none" d="M446,881.7c1.3,1.2,2.9,2.3,4.6,3.5C449.2,884,447.7,882.8,446,881.7z"/>
	<path fill="none" d="M398,850.7c-0.2-0.1-0.4-0.2-0.5-0.3c0.5,0.3,1,0.6,1.5,0.9C398.6,851.1,398.3,850.9,398,850.7z"/>
	<path fill="none" d="M777,990c1.3,0.1,3.8,0.2,7.4,0.3c-2.7-0.2-5.4-0.5-8.1-0.7c-85.7-7-167.4-18.9-243.2-35.7
		c0.1,0.1,0.2,0.2,0.3,0.3C609.3,971,691.2,984,777,990z"/>
	<path fill="none" d="M353,831l2.9-1.2c4,2,7,3,11,5c3,1,6,3,9,4c6,3,11,6,17,9c0.2,0.1,0.4,0.2,0.5,0.3c-1-0.6-1.9-1.1-2.7-1.5
		c-5-3-11.1-6-17.1-9.1c-3-1-6-3-9.1-4c-3.2-1.6-6.4-2.9-9.6-4.2l-3.1,1.3C352.4,830.8,352.7,830.9,353,831z"/>
	<path fill="none" d="M624.8,1058.7c-26.6-35.2-57-70.9-91.4-104.6c-0.1,0-0.3-0.1-0.4-0.1c-0.1-0.1-0.2-0.2-0.2-0.2
		c-0.2,0-0.3-0.1-0.5-0.1C567.1,987.4,597.9,1023.3,624.8,1058.7z"/>
	<path fill="none" d="M314,812h1c0.3,0.3,0.6,0.6,0.7,0.7c0.2-0.1,0.3-0.2,0.5-0.3c-0.9-0.3-1.9-0.7-2.8-1h-0.1
		c0.6,0.2,1.1,0.4,1.7,0.6c-0.6-0.2-1.1-0.4-1.7-0.6h-0.9c-9.1-3-18.1-6-27.2-9.1c0,0,0,0-0.1,0c0.6,0.2,1.1,0.4,1.8,0.6
		C296,806,305,809,314,812z"/>
	<polygon fill="none" points="759.9,1289.7 759,1290 759.9,1289.7 	"/>
	
		<radialGradient id="SVGID_1_" cx="-602.8602" cy="688.09" r="82.1581" gradientTransform="matrix(0.287 -9.996 -9.996 -0.287 7811.9219 -5097.9492)" gradientUnits="userSpaceOnUse">
		<stop  offset="0" style="stop-color:#D5D3B5"/>
		<stop  offset="0.9831" style="stop-color:#878A3A"/>
	</radialGradient>
	<path fill="url(#SVGID_1_)" d="M461,1188c-5,49-5,105,5,168c0,0,120-53,199-174c-2-9-3-18-4-27c-20-24-43-48-70-71
		C552,1131,506,1164,461,1188z"/>
	
		<radialGradient id="SVGID_2_" cx="-75.5246" cy="895.4822" r="82.1568" gradientTransform="matrix(7.161 -6.98 -6.98 -7.161 7552.0454 6616.1699)" gradientUnits="userSpaceOnUse">
		<stop  offset="0" style="stop-color:#D5D3B5"/>
		<stop  offset="0.9831" style="stop-color:#878A3A"/>
	</radialGradient>
	<path fill="url(#SVGID_2_)" d="M294,828c-0.5-0.1-1-0.3-1.6-0.4c-30.1,18.7-61,43.1-91.1,73l138.7-64
		C324.2,834.6,309.1,831.8,294,828z"/>
	
		<radialGradient id="SVGID_3_" cx="-75.5235" cy="895.4822" r="82.1584" gradientTransform="matrix(7.161 -6.98 -6.98 -7.161 7552.0454 6616.1699)" gradientUnits="userSpaceOnUse">
		<stop  offset="0" style="stop-color:#D5D3B5"/>
		<stop  offset="0.9831" style="stop-color:#878A3A"/>
	</radialGradient>
	<path fill="url(#SVGID_3_)" d="M413.7,965.4c-0.2-0.1-0.4-0.2-0.6-0.2c-63.6-29.8-136-51.7-217.3-58.9
		c-23.9,24-46.9,51.9-69.8,84.8c0,0,119.7,44.5,257.7,14.5c0.1-0.2,0.2-0.3,0.3-0.5C393.9,991.2,403.8,977.3,413.7,965.4z"/>
	
		<radialGradient id="SVGID_4_" cx="158.5933" cy="1410.344" r="82.1652" gradientTransform="matrix(10 -3.200000e-02 -3.200000e-02 -10 -780.033 14839.2822)" gradientUnits="userSpaceOnUse">
		<stop  offset="0" style="stop-color:#D5D3B5"/>
		<stop  offset="0.9831" style="stop-color:#878A3A"/>
	</radialGradient>
	<path fill="url(#SVGID_4_)" d="M433.6,632.3l1.7-1l38.7-23.8C427,572.8,391.6,532.4,365,491c0.4,0.1,0.8,0.2,1.2,0.2
		c-0.1-0.1-0.1-0.2-0.2-0.2c-64-14-141-16-232,1c0,0,37,78,117,147C319.5,621.4,380.4,622,433.6,632.3z"/>
	
		<radialGradient id="SVGID_5_" cx="-32.5018" cy="1942.8579" r="81.8141" gradientTransform="matrix(7.206 6.934 6.934 -7.206 -12481.6367 14954.5771)" gradientUnits="userSpaceOnUse">
		<stop  offset="0" style="stop-color:#D5D3B5"/>
		<stop  offset="0.9831" style="stop-color:#878A3A"/>
	</radialGradient>
	<path fill="url(#SVGID_5_)" d="M636.3,507.6l13.3-9.1v1.8l0.4-0.3V300c-30-55-88-110-166-162c0,0-27.7,82-18.2,188.1
		c1.1,0.6,2.1,1.3,3.2,1.9C555.4,380,606.1,446.5,636.3,507.6z"/>
	
		<radialGradient id="SVGID_6_" cx="-539.0777" cy="2194.5125" r="81.9619" gradientTransform="matrix(0.352 9.994 9.994 -0.352 -20973.0996 6890.4312)" gradientUnits="userSpaceOnUse">
		<stop  offset="0" style="stop-color:#D5D3B5"/>
		<stop  offset="0.9831" style="stop-color:#878A3A"/>
	</radialGradient>
	<path fill="url(#SVGID_6_)" d="M829.6,489.9c0.4,0.2,0.7,0.4,1.1,0.6v-0.1C830.3,490.3,830,490.1,829.6,489.9z"/>
	
		<radialGradient id="SVGID_7_" cx="-539.0777" cy="2194.5125" r="81.9619" gradientTransform="matrix(0.352 9.994 9.994 -0.352 -20973.0996 6890.4312)" gradientUnits="userSpaceOnUse">
		<stop  offset="0" style="stop-color:#D5D3B5"/>
		<stop  offset="0.9831" style="stop-color:#878A3A"/>
	</radialGradient>
	<path fill="url(#SVGID_7_)" d="M830.7,486.4v2v2c7.9,4,16.2,8.7,24.7,13.9c19.6-36.4,43.1-66.7,68.8-92.1
		c22.9-22.8,47.4-41.7,71.8-57.2c0,0,0,0,0,0l0,0h0c0.4-0.2,0.7-0.5,1.1-0.7c9.9-62.9,12.8-136.6-6.1-224.3c0,0-101,49-161,151v206
		c0,0-1.3,0.6-0.8,1.4h1.5C829.7,487.4,830.7,487.4,830.7,486.4z"/>
	
		<radialGradient id="SVGID_8_" cx="-1077.0546" cy="2020.6301" r="82.1655" gradientTransform="matrix(-6.7 7.423 7.423 6.7 -21454.6582 -4812.4795)" gradientUnits="userSpaceOnUse">
		<stop  offset="0" style="stop-color:#D5D3B5"/>
		<stop  offset="0.9831" style="stop-color:#878A3A"/>
	</radialGradient>
	<path fill="url(#SVGID_8_)" d="M1006.8,615.5c4.3,3.9,8.5,7.9,13.1,11.8l1,1c4.2,3.8,8.3,7.6,12.5,11.4
		c60.5-12.7,117-9.6,166.6,1.3c52-38,103-93,151-169c0,0-88.7-26.9-198.4-11.1c-0.2,0.4-0.4,0.7-0.6,1.1
		C1110.2,535.6,1057.6,583.5,1006.8,615.5z"/>
	
		<radialGradient id="SVGID_9_" cx="-1343.9969" cy="1521.4674" r="82.1445" gradientTransform="matrix(-9.977 0.671 0.671 9.977 -13669.1934 -13547.0977)" gradientUnits="userSpaceOnUse">
		<stop  offset="0" style="stop-color:#D5D3B5"/>
		<stop  offset="0.9831" style="stop-color:#878A3A"/>
	</radialGradient>
	<path fill="url(#SVGID_9_)" d="M1201,856.7c6,10.1,11.1,20.1,16.1,30.2c1,1,1,2,2,3c5,11.1,10.1,21.1,15.1,32.2c0,1,1,1,1,2
		c5,11.1,10.1,22.1,15.1,34.2c-0.4,0.1-0.7,0.2-1.1,0.3c4.1,10.3,8.1,20.7,11.8,31.4c36-3,74-9,115-19c-2,0-47-81-138-147
		c-16.4,4.8-32.8,8.7-48.4,11.7c3.4,6.1,6.8,12.3,9.4,18C1200,854.7,1200,855.7,1201,856.7z"/>
	
		<radialGradient id="SVGID_10_" cx="-1188.8693" cy="978.4592" r="82.1711" gradientTransform="matrix(-7.634 -6.46 -6.46 7.634 -1994.2574 -14418.9004)" gradientUnits="userSpaceOnUse">
		<stop  offset="0" style="stop-color:#D5D3B5"/>
		<stop  offset="0.9831" style="stop-color:#878A3A"/>
	</radialGradient>
	<path fill="url(#SVGID_10_)" d="M910,1246c35,35,79,69,134,100c0,0,16-61,11-143L910,1246z"/>
	
		<radialGradient id="SVGID_11_" cx="-75.5235" cy="895.4822" r="82.1584" gradientTransform="matrix(7.161 -6.98 -6.98 -7.161 7552.0454 6616.1699)" gradientUnits="userSpaceOnUse">
		<stop  offset="0" style="stop-color:#D5D3B5"/>
		<stop  offset="0.9831" style="stop-color:#878A3A"/>
	</radialGradient>
	<path fill="url(#SVGID_11_)" d="M317,813c8,3,16,7,24,10c3,1,5,2,7,6c1.6,0.5,2.9,1.1,4.1,1.6l3.1-1.3c-2.8-1.2-5.7-2.4-8.5-3.8
		c-2.7-1.8-4.5-2.8-7-3.7c0.8,0.4,1.6,0.7,2.3,1.1c-1.6-0.7-3.3-1.4-4.9-2.1c-1.6-0.6-3.3-1.3-4.9-2c-4.4-1.8-8.8-3.5-12.9-5.4
		c-1-0.4-1.9-0.7-2.9-1.1c-0.2,0.1-0.3,0.2-0.5,0.3C316.1,813,316.3,813,317,813z"/>
	
		<radialGradient id="SVGID_12_" cx="158.5933" cy="1410.344" r="82.1652" gradientTransform="matrix(10 -3.200000e-02 -3.200000e-02 -10 -780.033 14839.2822)" gradientUnits="userSpaceOnUse">
		<stop  offset="0" style="stop-color:#D5D3B5"/>
		<stop  offset="0.9831" style="stop-color:#878A3A"/>
	</radialGradient>
	<path fill="url(#SVGID_12_)" d="M431.8,633.4l1.7-1.1c-52.3-9.4-114-10-182.5,6.6c0.2,0.1,0.3,0.3,0.5,0.4
		C319.1,623.4,380.1,624.1,431.8,633.4z"/>
	
		<radialGradient id="SVGID_13_" cx="158.5933" cy="1410.344" r="82.1652" gradientTransform="matrix(10 -3.200000e-02 -3.200000e-02 -10 -780.033 14839.2822)" gradientUnits="userSpaceOnUse">
		<stop  offset="0" style="stop-color:#D5D3B5"/>
		<stop  offset="0.9831" style="stop-color:#878A3A"/>
	</radialGradient>
	<path fill="url(#SVGID_13_)" d="M474.4,607.2L474.4,607.2l0.8-0.5c-47.5-33.4-82.7-74.3-108.3-115.3c-0.2,0-0.5-0.1-0.7-0.2
		C392.7,532.4,426.9,573.6,474.4,607.2z"/>
	
		<radialGradient id="SVGID_14_" cx="158.5933" cy="1410.344" r="82.1652" gradientTransform="matrix(10 -3.200000e-02 -3.200000e-02 -10 -780.033 14839.2822)" gradientUnits="userSpaceOnUse">
		<stop  offset="0" style="stop-color:#D5D3B5"/>
		<stop  offset="0.9831" style="stop-color:#878A3A"/>
	</radialGradient>
	<path fill="url(#SVGID_14_)" d="M473.9,607.5l0.5-0.3c-47.6-33.6-81.8-74.8-108.3-115.9c-0.4-0.1-0.8-0.2-1.2-0.2
		C391.6,532.4,427,572.8,473.9,607.5z"/>
	
		<radialGradient id="SVGID_15_" cx="158.5933" cy="1410.344" r="82.1652" gradientTransform="matrix(10 -3.200000e-02 -3.200000e-02 -10 -780.033 14839.2822)" gradientUnits="userSpaceOnUse">
		<stop  offset="0" style="stop-color:#D5D3B5"/>
		<stop  offset="0.9831" style="stop-color:#878A3A"/>
	</radialGradient>
	<path fill="url(#SVGID_15_)" d="M473.9,607.5l0.5-0.3c-47.6-33.6-81.8-74.8-108.3-115.9c-0.4-0.1-0.8-0.2-1.2-0.2
		C391.6,532.4,427,572.8,473.9,607.5z"/>
	
		<radialGradient id="SVGID_16_" cx="-539.0777" cy="2194.5125" r="81.9619" gradientTransform="matrix(0.352 9.994 9.994 -0.352 -20973.0996 6890.4312)" gradientUnits="userSpaceOnUse">
		<stop  offset="0" style="stop-color:#D5D3B5"/>
		<stop  offset="0.9831" style="stop-color:#878A3A"/>
	</radialGradient>
	<path fill="url(#SVGID_16_)" d="M855.4,504.3C855.4,504.3,855.4,504.3,855.4,504.3c19.5-36.2,43.2-66.6,68.8-92.1
		C898.5,437.6,875,467.9,855.4,504.3z"/>
	
		<radialGradient id="SVGID_17_" cx="-539.074" cy="2193.6777" r="82.141" gradientTransform="matrix(0.352 9.994 9.994 -0.352 -20973.0996 6890.4312)" gradientUnits="userSpaceOnUse">
		<stop  offset="0" style="stop-color:#D5D3B5"/>
		<stop  offset="0.9831" style="stop-color:#878A3A"/>
	</radialGradient>
	<path fill="url(#SVGID_17_)" d="M855.4,504.3C855.4,504.3,855.4,504.3,855.4,504.3c19.5-36.2,43.2-66.6,68.8-92.1
		C898.5,437.6,875,467.9,855.4,504.3z"/>
	
		<radialGradient id="SVGID_18_" cx="-575.7966" cy="2218.5083" r="6.679803e-04" gradientTransform="matrix(0.352 9.994 9.994 -0.352 -20973.0996 6890.4312)" gradientUnits="userSpaceOnUse">
		<stop  offset="0" style="stop-color:#D5D3B5"/>
		<stop  offset="0.9831" style="stop-color:#878A3A"/>
	</radialGradient>
	<path fill="url(#SVGID_18_)" d="M996,355C996,355,996,355,996,355C996,355,996,355,996,355L996,355z"/>
	
		<radialGradient id="SVGID_19_" cx="-575.7966" cy="2218.5083" r="6.679803e-04" gradientTransform="matrix(0.352 9.994 9.994 -0.352 -20973.0996 6890.4312)" gradientUnits="userSpaceOnUse">
		<stop  offset="0" style="stop-color:#D5D3B5"/>
		<stop  offset="0.9831" style="stop-color:#878A3A"/>
	</radialGradient>
	<path fill="url(#SVGID_19_)" d="M996,355C996,355,996,355,996,355C996,355,996,355,996,355L996,355z"/>
	<path fill="#E7CF1C" d="M340.1,836.6l3.9-1.8l9.1-3.8c-0.3-0.1-0.6-0.3-0.9-0.4c-1.2-0.5-2.5-1.1-4.1-1.6c-2-4-4-5-7-6
		c-8-3-16-7-24-10c-0.7,0-0.9,0-1.3-0.3c-0.2-0.1-0.4-0.4-0.7-0.7h-1c-9-3-18-6-27-9c-0.6-0.2-1.2-0.4-1.8-0.6
		c-2.3,0-4.1-0.6-6.2-1.4c0,0,0,0,0,0c-1-0.3-1.9-0.6-2.9-0.8c-4.9-0.9-10.5-2.4-16.1-4c-0.3-0.1-0.7-0.1-1-0.2
		c-0.8-0.3-1.6-0.5-2.5-0.8c-2.5-0.6-4.6-0.8-6.6-1.2c-0.3,0-0.6,0-0.9,0c-1.2-0.3-2.4-0.6-3.6-0.9c-3.2-0.5-6.4-1.2-9.6-1.9
		c-2.6-0.4-5.2-0.8-7.8-1.2c-3-1-6-1-9-2c-10-2-20-3-30-4l0.7-0.4c-1-0.1-2-0.2-3.1-0.3l144.9-88.6l100.2-61.3
		c-51.7-9.3-112.7-10-180.3,6c-0.8,0.2-1.7,0.4-2.5,0.6c-53,13-110,35-171,71c0,0,84.3,83.3,214.4,116.6c0.5,0.1,1,0.3,1.6,0.4
		C309.1,831.8,324.2,834.6,340.1,836.6z"/>
	<path fill="#E7CF1C" d="M475.2,606.7l62.7-37.8l21.1-13.1l74.5-46.3l2.8-2C606.1,446.5,555.4,380,469,328c-1-0.6-2.1-1.3-3.2-1.9
		C419.4,297.9,362.4,274.6,293,257c0,0,3,119,73,233c0.3,0.5,0.6,0.9,0.9,1.4C392.5,532.4,427.7,573.3,475.2,606.7z"/>
	<path fill="#E7CF1C" d="M996,355C996,355,996,355,996,355c-24.5,15.5-49,34.4-71.9,57.2c-25.6,25.5-49.3,55.9-68.8,92.1
		c1.2,0.7,2.3,1.5,3.5,2.2c0,1,1,1,1,1c6,3,11.1,6,17.1,10.1c1,0,1,1,2,1c5,4,11.1,7,17.1,11.1c1,0,1,1,2,1c6,4,12.1,8.1,18.1,12.1
		c0,1,1,1,1,1c13.1,9.1,26.2,19.1,39.2,29.2c1,1,1,1,1,1c6,5,12.1,11.1,19.1,16.1c1,0,1,1,2,1c6,5,13.1,10.1,19.1,16.1c1,1,1,1,2,2
		c2.5,2.1,4.8,4.2,7.1,6.3c50.7-32,103.4-79.9,145.2-153.5c0.2-0.4,0.4-0.7,0.6-1.1c27.7-48.8,50.5-107.5,66.4-180.9
		c-1,0-113.2,6-221.9,74.3C996.7,354.5,996.4,354.8,996,355L996,355z"/>
	
		<radialGradient id="SVGID_20_" cx="-1343.9969" cy="1521.4674" r="82.1445" gradientTransform="matrix(-9.977 0.671 0.671 9.977 -13669.1934 -13547.0977)" gradientUnits="userSpaceOnUse">
		<stop  offset="0" style="stop-color:#D5D3B5"/>
		<stop  offset="0.9831" style="stop-color:#878A3A"/>
	</radialGradient>
	<path fill="url(#SVGID_20_)" d="M1189.6,835.7c15.5-3,31.9-6.9,48.4-11.7l0,0C1221.6,828.8,1205.2,832.7,1189.6,835.7L1189.6,835.7
		z"/>
	<path fill="#E7CF1C" d="M1033.4,639.7c16.9,15.7,33.8,32.4,49.9,51c0,1,1,1,1,2c6,7,13.1,14.1,19.1,22.1c1,0,1,1,2,2
		c7,7,13.1,15.1,19.1,23.1c1,1,1,1,2,2c6,8.1,13.1,16.1,19.1,25.2c13.1,18.1,25.2,36.2,37.2,56.4c0,1,1,1,1,2
		c1.8,3.3,3.8,6.7,5.7,10.2c15.5-3,31.9-6.9,48.4-11.7h0c53-16,110-42,171-83c0,0-84-73-209-100
		C1150.4,630.1,1093.9,627.1,1033.4,639.7z"/>
	<path fill="#E7CF1C" d="M1129,1182c29,9,61,18,97,24c0,0-2-20-9-50L1129,1182z"/>
	
		<radialGradient id="SVGID_21_" cx="-602.8602" cy="688.09" r="82.1581" gradientTransform="matrix(0.287 -9.996 -9.996 -0.287 7811.9219 -5097.9492)" gradientUnits="userSpaceOnUse">
		<stop  offset="0" style="stop-color:#D5D3B5"/>
		<stop  offset="0.9831" style="stop-color:#878A3A"/>
	</radialGradient>
	<path fill="url(#SVGID_21_)" d="M673,1168c-3-4-8-9-12-14C665,1159,669,1163,673,1168L673,1168z"/>
	
		<radialGradient id="SVGID_22_" cx="-602.8602" cy="688.09" r="82.1581" gradientTransform="matrix(0.287 -9.996 -9.996 -0.287 7811.9219 -5097.9492)" gradientUnits="userSpaceOnUse">
		<stop  offset="0" style="stop-color:#D5D3B5"/>
		<stop  offset="0.9831" style="stop-color:#878A3A"/>
	</radialGradient>
	<path fill="url(#SVGID_22_)" d="M661,1154c1,9,3,18,4,27h0C664,1172,662,1163,661,1154L661,1154z"/>
	<path fill="#E7CF1C" d="M759.9,1289.7l-0.9,0.3c-11-19-39-66-86-122l0,0c-4-5-8-9-12-14c0,0,0,0,0,0l0,0c1,9,3,18,4,27l0,0
		c13,69,44,146,105,230c0,0,47-58,76-147L759.9,1289.7c0.1,0.1,0.1,0.2,0.1,0.3C760,1289.9,759.9,1289.8,759.9,1289.7z"/>
	
		<radialGradient id="SVGID_23_" cx="-602.8602" cy="688.09" r="82.1581" gradientTransform="matrix(0.287 -9.996 -9.996 -0.287 7811.9219 -5097.9492)" gradientUnits="userSpaceOnUse">
		<stop  offset="0" style="stop-color:#D5D3B5"/>
		<stop  offset="0.9831" style="stop-color:#878A3A"/>
	</radialGradient>
	<path fill="url(#SVGID_23_)" d="M461,1188c44-24,91-57,130-104C551,1131,505,1164,461,1188z"/>
	
		<radialGradient id="SVGID_24_" cx="-602.8602" cy="688.09" r="82.1581" gradientTransform="matrix(0.287 -9.996 -9.996 -0.287 7811.9219 -5097.9492)" gradientUnits="userSpaceOnUse">
		<stop  offset="0" style="stop-color:#D5D3B5"/>
		<stop  offset="0.9831" style="stop-color:#878A3A"/>
	</radialGradient>
	<path fill="url(#SVGID_24_)" d="M461,1188c45-24,91-57,130-104C552,1131,505,1164,461,1188z"/>
	
		<radialGradient id="SVGID_25_" cx="-602.8602" cy="688.09" r="82.1581" gradientTransform="matrix(0.287 -9.996 -9.996 -0.287 7811.9219 -5097.9492)" gradientUnits="userSpaceOnUse">
		<stop  offset="0" style="stop-color:#D5D3B5"/>
		<stop  offset="0.9831" style="stop-color:#878A3A"/>
	</radialGradient>
	<path fill="url(#SVGID_25_)" d="M461,1188c45-24,91-57,130-104C552,1131,505,1164,461,1188z"/>
	<path fill="#E7CF1C" d="M413.7,965.4c-9.9,11.9-19.8,25.8-29.7,39.6c-0.1,0.2-0.2,0.3-0.3,0.5c-38.8,58.9-69.7,135.8-84.7,237.5
		c0,0,77-9,162-55c44-24,90-57,130-104c-23-22-50-43-79-63c-19-13-39-25-60-37c-2.4-1.4-4.9-2.8-7.5-4.2
		C434.6,974.8,424.1,969.5,413.7,965.4z"/>
	<path fill="#C7C7C7" d="M759,1290l0.9-0.3l0,0c0,0.1,0.1,0.2,0.1,0.3c0-0.1-0.1-0.2-0.1-0.3l0,0L846,1264l64-19l145-43l74-22l88-26
		l71-21c-4.9-14.8-9.9-28.6-15.8-42.5l-1.2,0.5L759,1290z"/>
	<path fill="#C7C7C7" d="M532.3,953.7c-0.5-0.1-1-0.2-1.5-0.3c-3-3-6-6-9.1-9.1c-3-3-6-6-9.1-9.1c-5-5-11.1-10.1-17.1-15.1
		c-3-2-5-5-8.1-7c-4-3-9.1-7-13.1-10.1c-3-2-6-5-9.1-7c-0.2-0.1-0.4-0.2-0.6-0.4c1.1,0.8,2.2,1.6,3.1,2.4c-5-3-9-7-14-10
		c1.1,0.7,2.2,1.4,3.3,2.1c-1.9-1.5-3.9-3-6-4.2c-0.2-0.2-0.5-0.5-0.8-0.7c-1.7-1.2-3.3-2.3-4.6-3.5c-0.9-0.6-1.8-1.2-2.7-1.8
		c-6-4-12.1-8.1-18.1-12.1c-1-1-3-2-4-3c-6.8-4.8-14.5-8.7-22.2-13.5c-0.5-0.3-1-0.6-1.5-0.9c-1.1-0.6-2.5-1.5-3.8-2.2
		c-0.2-0.1-0.4-0.2-0.5-0.3c-6-3-11-6-17-9c-3-1-6-3-9-4c-4-2-7-3-11-5L353,831l-9.1,3.8l-3.9,1.8l-138.7,64l-0.8,0.4l-12,4
		c2,0,4,0,5,1c0.7,0.1,1.5,0.1,2.2,0.2c81.3,7.2,153.8,29.1,217.3,58.9c0.2,0.1,0.4,0.2,0.6,0.2c10.5,4.1,20.9,9.4,30.9,14.4
		c2.3,1.1,4.5,2.3,6.7,3.4c21.1,12,41.1,24.1,60.2,37.1c29.1,20.1,56.1,41.1,80.2,63.2c26.1,24.1,50.1,48.1,70.2,70.2
		c4,5,8,10,12,14c42.2,49.4,69.2,92.4,82.2,115.2c-16.5-38.5-59.9-129.5-131.2-224.2C597.9,1023.3,567.1,987.4,532.3,953.7z
		 M423,867c-8-5-15-10-23-14C408,857,416,862,423,867z M392,848c-6-3-11-6-17-9C381,842,387,845,392,848z M428,870c6,4,12,8,18,12
		C440,878,433,874,428,870z M476,905c5,3,9,6,13,10C485,912,481,908,476,905z M498,923c5,4,11,9,17,15C509,933,504,928,498,923z"/>
	<path fill="#F0F0F0" d="M822.5,486.8c1.1,0.7,1.8,1.2,2.5,1.2C824.4,487.4,823.4,487.1,822.5,486.8z"/>
	<path fill="#F0F0F0" d="M822.5,486.8c-0.4-0.3-0.9-0.5-1.5-0.8C821.4,486.4,821.9,486.6,822.5,486.8z"/>
	<path fill="#F0F0F0" d="M533.4,954.1c-0.1-0.1-0.2-0.2-0.3-0.3c-0.1,0-0.3-0.1-0.4-0.1c0.1,0.1,0.2,0.2,0.2,0.2
		C533.1,954,533.3,954.1,533.4,954.1z"/>
	<path fill="#F0F0F0" d="M839.8,995.6l-1-2c-17.6-0.9-35.9-1.8-54.3-3.3c-3.6-0.1-6.1-0.2-7.4-0.3c-85.8-6-167.7-19-243.6-35.9
		c34.4,33.7,64.8,69.4,91.4,104.6c71.4,94.6,114.7,185.6,131.2,224.2c1.1,2.6,2.1,5,3,7.1l512-199l1.2-0.5l14.8-5.5
		c-8-33-18-65-29-95c-3.6-10.3-7.4-20.6-11.4-30.7C1128.7,987.8,989.1,1001.6,839.8,995.6z"/>
	<path fill="#F0F0F0" d="M319.2,813.5c4.1,1.9,8.5,3.6,12.9,5.4C327.9,817.1,323.7,815.3,319.2,813.5z"/>
	<path fill="#F0F0F0" d="M339.7,821.9c-0.3-0.1-0.7-0.2-1-0.4c-0.5-0.2-1-0.4-1.6-0.6c1.6,0.7,3.3,1.4,4.9,2.1
		C341.2,822.6,340.4,822.2,339.7,821.9z"/>
	<path fill="none" stroke="#F0F0F0" stroke-width="0" stroke-linecap="round" stroke-linejoin="round" d="M315,812
		c-0.6-0.2-1.1-0.4-1.7-0.6"/>
	<path fill="#F0F0F0" d="M826,489c1.5,0.9,3.1,1.9,4.7,2.8v-0.2C829.1,490.7,827.5,489.9,826,489z"/>
	<path fill="#F0F0F0" d="M375,839c6,3,11,6,17,9C387,845,381,842,375,839z"/>
	<path fill="#F0F0F0" d="M400,853c8,4,15,9,23,14C416,862,408,857,400,853z"/>
	<path fill="#F0F0F0" d="M468,898c-1-0.7-2-1.5-3.1-2.4c-2.7-1.7-5.1-3.6-7.5-5.5c-1.1-0.7-2.2-1.5-3.3-2.1C459,891,463,895,468,898
		z"/>
	<path fill="#F0F0F0" d="M446,882c-6-4-12-8-18-12C433,874,440,878,446,882z"/>
	<path fill="#F0F0F0" d="M515,938c-6-6-12-11-17-15C504,928,509,933,515,938z"/>
	<path fill="#F0F0F0" d="M489,915c-4-4-8-7-13-10C481,908,485,912,489,915z"/>
	<path fill="#E0E0E0" d="M830.7,488.4v-2C830.7,487.4,829.7,487.4,830.7,488.4z"/>
	<path fill="#E0E0E0" d="M830.7,488.4h-1.5h-2.6c1,0.5,1.9,1,2.9,1.5c0.4,0.2,0.7,0.4,1.1,0.6V488.4z"/>
	<path fill="#E0E0E0" d="M1250.3,958.4c-5-12.1-10.1-23.1-15.1-34.2c0-1-1-1-1-2c-5-11.1-10.1-21.1-15.1-32.2c-1-1-1-2-2-3
		c-5-10.1-10.1-20.1-16.1-30.2c-1-1-1-2-2-3c-2.6-5.8-5.9-12-9.4-18l0,0l0,0c-1.9-3.5-3.9-6.9-5.7-10.2c0-1-1-1-1-2
		c-12.1-20.1-24.2-38.2-37.2-56.4c-6-9.1-13.1-17.1-19.1-25.2c-1-1-1-1-2-2c-6-8.1-12.1-16.1-19.1-23.1c-1-1-1-2-2-2
		c-6-8.1-13.1-15.1-19.1-22.1c0-1-1-1-1-2c-16.2-18.6-33-35.2-49.9-51c-4.2-3.9-8.3-7.7-12.5-11.4l-1-1c-4.6-3.9-8.8-7.9-13.1-11.8
		c-2.3-2.1-4.6-4.2-7.1-6.3c-1-1-1-1-2-2c-6-6-13.1-11.1-19.1-16.1c-1,0-1-1-2-1c-7-5-13.1-11.1-19.1-16.1c0,0,0,0-1-1
		c-13.1-10.1-26.2-20.1-39.2-29.2c0,0-1,0-1-1c-6-4-12.1-8.1-18.1-12.1c-1,0-1-1-2-1c-6-4-12.1-7-17.1-11.1c-1,0-1-1-2-1
		c-6-4-11.1-7-17.1-10.1c0,0-1,0-1-1c-1.2-0.7-2.3-1.5-3.5-2.2c0,0,0,0,0,0c-8.4-5.2-16.8-9.8-24.7-13.9v0.1v1.1v0.2V585l0-2v110.7
		l-65.4,179.1l-16.2,50.7L742,946l-10.3-30.1L726,900l-76.5-205.3V594.1v-93.8v-1.8l-13.3,9.1l-2.8,2L559,555.8l-21.1,13.1
		l-62.7,37.8l-0.7,0.4l0,0l-0.5,0.3l-38.7,23.8l-1.7,1l-0.1,0l-1.7,1.1l-100.2,61.3l-144.9,88.6c1,0.1,2,0.2,3.1,0.3
		c9,0.9,18.1,1.9,27.1,3.7c3,0,6,1,9.1,2c3.3,0.5,6.6,1.2,9.8,1.9c3.2,0.7,6.4,1.4,9.6,1.9c0.5,0.1,1.1,0.2,1.6,0.3
		c0.9,0.3,1.9,0.5,2.9,0.7c2,0.4,4.1,0.6,6.6,1.2c0.2,0,0.4,0.1,0.6,0.1c1,0.3,1.9,0.6,2.9,0.8c5.6,1.6,11.2,3.1,16.1,4
		c0.4,0.1,0.7,0.1,1.1,0.2c0.6,0.2,1.2,0.4,1.8,0.6c2.1,0.7,3.8,1.4,6.2,1.4c0,0,0,0,0.1,0c9.1,3,18.1,6,27.2,9.1h0.9h0.1
		c0.9,0.3,1.9,0.6,2.8,1c1,0.4,2,0.7,2.9,1.1c4.5,1.7,8.7,3.6,12.9,5.4c1.6,0.7,3.3,1.4,4.9,2c0.5,0.2,1,0.4,1.6,0.6
		c0.4,0.1,0.7,0.2,1,0.4c2.5,0.9,4.3,1.9,7,3.7c2.8,1.4,5.7,2.6,8.5,3.8c3.2,1.3,6.4,2.6,9.6,4.2c3,1,6,3,9.1,4c6,3,12.1,6,17.1,9.1
		c0.8,0.4,1.7,0.9,2.7,1.5c1.3,0.8,2.7,1.6,3.8,2.2c0.2,0.1,0.4,0.2,0.5,0.3c0.3,0.2,0.6,0.4,1,0.6c7.7,4.8,15.4,8.7,22.2,13.5
		c1,1,3,2,4,3c6,4,12.1,8.1,18.1,12.1c0.9,0.6,1.8,1.2,2.7,1.8c1.7,1.2,3.3,2.3,4.6,3.5c0.3,0.2,0.5,0.5,0.8,0.7
		c2.1,1.3,4.1,2.7,6,4.2c2.4,1.9,4.8,3.8,7.5,5.5c0.2,0.1,0.4,0.2,0.6,0.4c3,2,6,5,9.1,7c4,3,9.1,7,13.1,10.1c3,2,5,5,8.1,7
		c6,5,12.1,10.1,17.1,15.1c3,3,6,6,9.1,9.1c3,3,6,6,9.1,9.1c0.5,0.1,1,0.2,1.5,0.3c0.2,0,0.3,0.1,0.5,0.1c0.1,0,0.3,0.1,0.4,0.1
		c75.8,16.8,157.5,28.7,243.2,35.7c2.7,0.3,5.4,0.5,8.1,0.7c18.4,1.5,36.8,2.4,54.3,3.3l1,2c149.4,6,288.9-7.8,406.9-36.3
		c0.9-0.2,1.7-0.4,2.6-0.6C1249.6,958.5,1250,958.5,1250.3,958.4z"/>
	<polygon fill="#5B5C5E" points="749.1,923.6 766,870 716,870 731.7,915.9 742,946 	"/>
</g>
</svg>
